<svg id="visual" viewBox="0 0 900 800" width="900" height="800" xmlns="http://www.w3.org/2000/svg" xmlns:xlink="http://www.w3.org/1999/xlink" version="1.1"><path d="M0 297L82 297L82 193L164 193L164 177L245 177L245 137L327 137L327 321L409 321L409 129L491 129L491 265L573 265L573 169L655 169L655 337L736 337L736 289L818 289L818 441L900 441L900 313L900 0L900 0L818 0L818 0L736 0L736 0L655 0L655 0L573 0L573 0L491 0L491 0L409 0L409 0L327 0L327 0L245 0L245 0L164 0L164 0L82 0L82 0L0 0Z" fill="#fa7268"></path><path d="M0 353L82 353L82 321L164 321L164 257L245 257L245 201L327 201L327 377L409 377L409 257L491 257L491 425L573 425L573 281L655 281L655 409L736 409L736 361L818 361L818 497L900 497L900 385L900 311L900 439L818 439L818 287L736 287L736 335L655 335L655 167L573 167L573 263L491 263L491 127L409 127L409 319L327 319L327 135L245 135L245 175L164 175L164 191L82 191L82 295L0 295Z" fill="#ea5e66"></path><path d="M0 625L82 625L82 561L164 561L164 465L245 465L245 489L327 489L327 601L409 601L409 545L491 545L491 617L573 617L573 601L655 601L655 609L736 609L736 521L818 521L818 649L900 649L900 529L900 383L900 495L818 495L818 359L736 359L736 407L655 407L655 279L573 279L573 423L491 423L491 255L409 255L409 375L327 375L327 199L245 199L245 255L164 255L164 319L82 319L82 351L0 351Z" fill="#d84a64"></path><path d="M0 753L82 753L82 665L164 665L164 681L245 681L245 681L327 681L327 745L409 745L409 737L491 737L491 681L573 681L573 745L655 745L655 697L736 697L736 697L818 697L818 729L900 729L900 737L900 527L900 647L818 647L818 519L736 519L736 607L655 607L655 599L573 599L573 615L491 615L491 543L409 543L409 599L327 599L327 487L245 487L245 463L164 463L164 559L82 559L82 623L0 623Z" fill="#c53762"></path><path d="M0 801L82 801L82 801L164 801L164 801L245 801L245 801L327 801L327 801L409 801L409 801L491 801L491 801L573 801L573 801L655 801L655 801L736 801L736 801L818 801L818 801L900 801L900 801L900 735L900 727L818 727L818 695L736 695L736 695L655 695L655 743L573 743L573 679L491 679L491 735L409 735L409 743L327 743L327 679L245 679L245 679L164 679L164 663L82 663L82 751L0 751Z" fill="#b0235f"></path></svg>